<svg width="1079" height="994" viewBox="0 0 1079 994" fill="none" xmlns="http://www.w3.org/2000/svg">
<g clip-path="url(#clip0)">
<path opacity="0.3" d="M119.4 533C21.8 448.2 8.09999 529 1.59999 530.2C1.59999 530.2 -1.30001 549.7 1.59999 620.8L953 1169.9V783.5C844.8 589.8 773.2 454.5 702.8 517C580.8 625.1 521.4 697.7 376.3 547.7C290.3 458.8 236.6 634.8 119.4 533Z" fill="url(#paint0_linear)"/>
<path opacity="0.3" d="M245.1 601.2C147.5 516.4 133.8 597.1 127.2 598.4C127.2 598.4 124.3 617.9 127.2 689L1078.6 1238.1V851.7C924.6 628.1 823.1 669.7 735.1 702C648.9 733.6 617.3 667.6 508.2 573.5C418.5 496.1 362.3 703 245.1 601.2Z" fill="url(#paint1_linear)"/>
<path d="M766.8 512C766.8 504 762.1 494.9 756.4 491.6C750.6 488.3 746 492 746 500C746 508 750.7 517.1 756.4 520.4C762.1 523.8 766.8 520 766.8 512Z" fill="#6EE7B7"/>
<path d="M490.9 565.8C490.9 558.1 486.1 549.1 480.1 545.7C474.1 542.3 469.3 545.7 469.3 553.4C469.3 561.1 474.1 570.1 480.1 573.5C486 576.9 490.9 573.5 490.9 565.8Z" fill="#A78BFA"/>
<path opacity="0.07" d="M700.2 0.299805L884.8 106.8V469.6L700.2 363.1V0.299805Z" fill="white"/>
<path opacity="0.3" d="M848.8 138L664.2 31.5L664.1 394.3L743.9 440.3L756.5 465.1L769 454.9L848.8 500.8V138Z" fill="url(#paint2_linear)"/>
<path opacity="0.1" d="M824.6 251.1C824.6 262.7 822.9 273.3 819.7 282.2C816.5 291.1 811.8 298.1 805.9 302.9C800 307.7 792.9 310.1 785.2 310.1C777.5 310.1 769.1 307.6 760.8 302.7V214.2L824.6 251.1Z" fill="white"/>
<path opacity="0.3" d="M760.8 302.8C749.6 296.3 738.6 285.9 728.9 272.5C719.2 259.1 711.1 243.3 705.5 226.6C699.9 209.9 696.9 192.9 696.9 177.4C696.9 161.9 699.9 148.3 705.5 138.1L760.8 214.3V302.8Z" fill="white"/>
<path d="M824.6 251.1C824.6 231.6 820 210 811.4 189.6C802.8 169.2 790.8 151.2 777.3 138.3C763.7 125.4 749.3 118.4 736.3 118.4C723.3 118.4 712.5 125.3 705.4 138.1L760.7 214.3L824.6 251.1Z" fill="#6EE7B7"/>
<path opacity="0.15" d="M688.3 306.6L800.8 371.5V385.1L688.3 320.2V306.6Z" fill="white"/>
<path opacity="0.15" d="M688.3 333.2L824.7 411.9V425.5L688.3 346.8V333.2Z" fill="white"/>
<path opacity="0.15" d="M688.3 359.8L776.7 410.8V424.4L688.3 373.4V359.8Z" fill="white"/>
<path opacity="0.07" d="M423.3 54.5L607.9 161V523.8L423.3 417.3V54.5Z" fill="white"/>
<path opacity="0.3" d="M572.4 192.4L387.8 85.8999L387.7 448.8L467.6 494.8L480.1 519.5L492.6 509.3L572.4 555.2V192.4Z" fill="url(#paint3_linear)"/>
<path opacity="0.1" d="M548.2 305.6C548.2 321.1 545.2 334.7 539.6 344.9C534 355.1 525.9 361.6 516.2 363.8L484.3 268.7L548.2 305.6Z" fill="white"/>
<path opacity="0.3" d="M516.3 363.8C504.1 366.5 490 362.2 476 351.7C462.1 341.1 449.1 324.8 439.2 305.3L484.4 268.8L516.3 363.8Z" fill="white"/>
<path d="M548.2 305.6C548.2 291 545.6 275.2 540.7 259.5C535.7 243.8 528.6 228.7 519.9 215.6C511.2 202.5 501.1 191.7 490.7 184.2C480.2 176.7 469.7 172.8 460 172.8C450.3 172.8 441.7 176.6 435.1 184C428.4 191.4 423.9 202.1 421.8 215.2C419.8 228.3 420.3 243.3 423.3 259C426.3 274.7 431.8 290.5 439.3 305.1L484.5 268.6L548.2 305.6Z" fill="#A78BFA"/>
<path opacity="0.15" d="M411.9 361.1L539.6 434.8V448.4L411.9 374.7V361.1Z" fill="white"/>
<path opacity="0.15" d="M411.9 387.6L544.5 464.2V477.8L411.9 401.2V387.6Z" fill="white"/>
<path opacity="0.15" d="M411.9 414.2L500.3 465.2V478.8L411.9 427.8V414.2Z" fill="white"/>
</g>
<defs>
<linearGradient id="paint0_linear" x1="650.452" y1="299.887" x2="529.296" y2="684.841" gradientUnits="userSpaceOnUse">
<stop stop-color="white"/>
<stop offset="1" stop-color="white" stop-opacity="0"/>
</linearGradient>
<linearGradient id="paint1_linear" x1="702.898" y1="465.6" x2="634.087" y2="777.08" gradientUnits="userSpaceOnUse">
<stop stop-color="white"/>
<stop offset="1" stop-color="white" stop-opacity="0"/>
</linearGradient>
<linearGradient id="paint2_linear" x1="756.45" y1="92.2025" x2="756.45" y2="540.557" gradientUnits="userSpaceOnUse">
<stop stop-color="white" stop-opacity="0"/>
<stop offset="1" stop-color="white"/>
</linearGradient>
<linearGradient id="paint3_linear" x1="480.05" y1="143.877" x2="480.05" y2="605.152" gradientUnits="userSpaceOnUse">
<stop stop-color="white" stop-opacity="0"/>
<stop offset="1" stop-color="white"/>
</linearGradient>
<clipPath id="clip0">
<rect width="1079" height="994" fill="white"/>
</clipPath>
</defs>
</svg>
