<svg width="33" height="30" viewBox="0 0 33 30" fill="none" xmlns="http://www.w3.org/2000/svg">
<path d="M14.2582 25.865C14.2727 26.4021 14.1799 26.9367 13.9854 27.4376C13.7909 27.9384 13.4984 28.3955 13.1252 28.782C12.7523 29.1668 12.306 29.4728 11.8127 29.682C11.3194 29.8913 10.7891 29.9994 10.2532 30C9.71727 30.0002 9.18676 29.8924 8.69334 29.6832C8.19991 29.4739 7.75368 29.1674 7.38124 28.782C7.00734 28.396 6.71447 27.939 6.51989 27.438C6.32531 26.9371 6.23294 26.4022 6.24824 25.865C6.25724 25.167 6.44824 24.483 6.80524 23.884C7.16124 23.284 7.66824 22.79 8.27524 22.451C8.25124 22.56 8.36524 22.396 8.27524 22.451L10.1352 20.799C11.6097 19.2298 12.4332 17.1592 12.4392 15.006C12.4392 12.08 10.7282 9.105 8.26924 7.549C8.36324 7.604 8.23324 7.455 8.26924 7.549C7.66193 7.20902 7.15518 6.71469 6.80024 6.116C6.44407 5.5163 6.25197 4.83344 6.24324 4.136C6.2286 3.59872 6.32126 3.06391 6.5158 2.56287C6.71034 2.06183 7.00286 1.60462 7.37624 1.218C7.74905 0.833339 8.19521 0.527354 8.68835 0.318146C9.18148 0.108938 9.71156 0.000756058 10.2472 5.71818e-07C10.7832 -0.000286365 11.3138 0.107418 11.8072 0.316684C12.3006 0.52595 12.7469 0.832488 13.1192 1.218C13.4933 1.60395 13.7862 2.06089 13.9808 2.56188C14.1754 3.06288 14.2677 3.59777 14.2522 4.135C14.2627 6.30708 15.1022 8.3932 16.5992 9.967L17.4162 10.767C17.7422 11.052 18.0842 11.318 18.4402 11.565C19.0612 11.895 19.5822 12.391 19.9442 12.996C20.2152 13.4489 20.3915 13.9521 20.4624 14.4751C20.5334 14.9982 20.4974 15.5301 20.3568 16.0389C20.2162 16.5476 19.9739 17.0225 19.6445 17.4349C19.315 17.8473 18.9054 18.1885 18.4402 18.438C18.4732 18.371 18.3772 18.474 18.4402 18.438C17.1841 19.2321 16.1449 20.3258 15.4162 21.621C14.6857 22.9184 14.2879 24.3764 14.2582 25.865V25.865ZM18.7412 4.123C18.7412 4.919 18.9762 5.698 19.4172 6.36C19.8567 7.02107 20.4824 7.53685 21.2152 7.842C21.9473 8.14685 22.7537 8.22661 23.5313 8.07112C24.309 7.91563 25.0226 7.53193 25.5812 6.969C26.1415 6.40452 26.5228 5.68728 26.6774 4.9071C26.832 4.12692 26.753 3.31848 26.4502 2.583C26.1475 1.84836 25.6339 1.2199 24.9742 0.777001C24.2041 0.260281 23.2782 0.0276751 22.3553 0.119089C21.4324 0.210504 20.57 0.62024 19.9162 1.278C19.1643 2.034 18.7419 3.05673 18.7412 4.123V4.123ZM22.7482 21.84C21.9562 21.84 21.1812 22.076 20.5222 22.518C19.8626 22.9609 19.349 23.5894 19.0462 24.324C18.7433 25.0596 18.6641 25.8683 18.8187 26.6486C18.9733 27.429 19.3547 28.1464 19.9152 28.711C20.4738 29.2739 21.1875 29.6576 21.9651 29.8131C22.7428 29.9686 23.5491 29.8888 24.2812 29.584C25.0147 29.2785 25.6408 28.762 26.0802 28.1C26.595 27.3249 26.8264 26.3959 26.7353 25.47C26.6442 24.544 26.2362 23.6779 25.5802 23.018C25.2091 22.6446 24.7678 22.3482 24.2819 22.1457C23.7959 21.9432 23.2747 21.8386 22.7482 21.838V21.84ZM33.0002 14.994C33.0002 14.198 32.7652 13.42 32.3252 12.758C31.886 12.0966 31.2602 11.5804 30.5272 11.275C29.795 10.9699 28.9885 10.8901 28.2106 11.0456C27.4328 11.2011 26.7189 11.5849 26.1602 12.148C25.5997 12.7126 25.2183 13.43 25.0637 14.2104C24.9091 14.9907 24.9883 15.7994 25.2912 16.535C25.5939 17.2696 26.1076 17.8981 26.7672 18.341C27.4255 18.783 28.2004 19.019 28.9932 19.019C29.5197 19.0182 30.0408 18.9136 30.5268 18.7111C31.0127 18.5086 31.454 18.2123 31.8252 17.839C32.5772 17.0826 32.9996 16.0596 33.0002 14.993V14.994ZM4.00724 10.969C3.21424 10.969 2.44024 11.205 1.78124 11.647C1.12146 12.0902 0.607831 12.719 0.305239 13.454C0.00250229 14.1895 -0.0765252 14.9979 0.0780521 15.7781C0.232629 16.5583 0.613941 17.2755 1.17424 17.84C1.73364 18.4017 2.44727 18.7845 3.22459 18.9399C4.00191 19.0953 4.80788 19.0164 5.54024 18.713C6.27315 18.4075 6.89891 17.8914 7.33824 17.23C7.85266 16.4552 8.08385 15.5265 7.99276 14.601C7.90166 13.6754 7.49385 12.8097 6.83824 12.15C6.46714 11.7767 6.02609 11.4803 5.54032 11.2776C5.05455 11.075 4.53358 10.9701 4.00724 10.969V10.969Z" fill="#8B5CF6"/>
</svg>
